<svg id="visual" viewBox="0 0 900 600" width="900" height="600" xmlns="http://www.w3.org/2000/svg" xmlns:xlink="http://www.w3.org/1999/xlink" version="1.1"><rect x="0" y="0" width="900" height="600" fill="#001220"></rect><defs><linearGradient id="grad1_0" x1="33.3%" y1="0%" x2="100%" y2="100%"><stop offset="20%" stop-color="#001220" stop-opacity="1"></stop><stop offset="80%" stop-color="#001220" stop-opacity="1"></stop></linearGradient></defs><defs><linearGradient id="grad2_0" x1="0%" y1="0%" x2="66.7%" y2="100%"><stop offset="20%" stop-color="#001220" stop-opacity="1"></stop><stop offset="80%" stop-color="#001220" stop-opacity="1"></stop></linearGradient></defs><g transform="translate(900, 0)"><path d="M0 270.4C-28.3 264.4 -56.7 258.5 -79.1 243.5C-101.6 228.5 -118.1 204.4 -135.2 186.1C-152.2 167.7 -169.8 155 -192.5 139.9C-215.3 124.8 -243.3 107.3 -257.2 83.6C-271 59.8 -270.7 29.9 -270.4 0L0 0Z" fill="#FBAE3C"></path></g><g transform="translate(0, 600)"><path d="M0 -270.4C25.6 -260.6 51.2 -250.8 79.4 -244.4C107.6 -238.1 138.4 -235.2 158.9 -218.8C179.5 -202.3 189.8 -172.3 203.1 -147.5C216.4 -122.7 232.7 -103.1 244.4 -79.4C256.2 -55.7 263.3 -27.8 270.4 0L0 0Z" fill="#FBAE3C"></path></g></svg>